<svg xmlns="http://www.w3.org/2000/svg" width="48" height="48" viewBox="0 0 48 48" id="apex">
  <path d="M11.34 15H7.58L6.24 27.61H5.91l-.57 2.67H6L5.67 33H8.19l.18-2.67 1.09 0 1.09 0L10.73 33h2.52zM8.52 27.67l.89-10.21.9 10.21zM20.39 15H15.8l-.7 2.7h.7V32.52h-.35V33h3V27.79l2-.05a2.32 2.32 0 0 0 2.25-2.31V17.28A2.32 2.32 0 0 0 20.39 15zm-.53 9.94h-1.4V17.46h1.4z"></path>
  <polygon points="31.87 17.63 31.87 14.97 25.61 14.97 24.94 17.63 25.65 17.63 25.65 22.56 25.65 25.33 25.65 30.26 25.65 33.01 25.65 33.03 31.87 33.03 31.87 30.26 28.41 30.26 28.41 25.33 30.86 25.33 30.86 22.56 28.41 22.56 28.41 17.63 31.87 17.63"></polygon>
  <polygon points="40.46 23.47 42.66 14.97 39.69 14.97 38.4 20.52 37.06 14.97 37.02 14.97 34.7 14.97 34.7 14.97 34.41 16.21 34.41 16.21 34.09 17.61 34.78 17.61 36.3 23.47 36.32 24.68 34.22 33.03 37.06 33.03 38.38 27.29 39.69 33.03 42.54 33.03 40.44 24.68 40.46 23.47"></polygon>
</svg>
