<svg xmlns="http://www.w3.org/2000/svg" viewBox="0 0 32 32" id="valorant">
  <path fill="#FF4454" d="m4 9 13 16h-5l-8-9zM19 19l9-11v8l-3 3z"></path>
  <path fill="#C41C38" d="M4.772 7.364A1 1 0 0 0 3 8v8c0 .245.09.481.252.665l8 9c.19.213.462.335.748.335h6a.999.999 0 0 0 .772-1.636l-14-17zM12.449 24 5 15.62v-4.833L15.881 24h-3.432zM28.336 7.058a.998.998 0 0 0-1.11.309l-9 11A1.001 1.001 0 0 0 19 20h6c.265 0 .52-.105.707-.293l3-3A.997.997 0 0 0 29 16V8a1 1 0 0 0-.664-.942zM27 15.586 24.586 18H21.11L27 10.801v4.785z"></path>
</svg>
